# Blender v2.79 (sub 0) OBJ File: 'chalet alpino.blend'
# www.blender.org
o colision_area_sonido_interior_Casa_Cube.172
v -89.954285 -13.649521 392.353027
v -89.954285 186.350479 392.353027
v -89.954285 -13.649521 -388.180664
v -89.954285 257.977325 -388.180664
v 517.526855 -13.649521 392.353027
v 399.129333 196.228165 392.353027
v 517.526855 -13.649521 -388.180664
v 399.129364 196.228149 -388.180664
v -89.954285 -13.649521 -10.507141
v -89.954285 257.977325 -10.507126
v 517.526855 -13.649521 -10.507126
v 399.129333 196.228165 -10.507126
v -388.651520 257.977325 -10.507126
v -388.651520 257.977325 -388.180664
v -388.651520 -13.649521 -388.180664
v -388.651520 -13.649521 -10.507141
v 142.654556 615.983521 -10.507126
v 142.654556 615.983521 -388.180664
v 162.334351 615.983521 -388.180664
v 162.334351 615.983521 -10.507141
v 162.334351 615.983521 392.353027
v 142.654556 615.983521 392.353027
v 344.625214 292.845032 -10.507126
v 344.625214 292.845032 392.353027
v 344.625244 292.845032 -388.180664
v -89.954285 294.822205 392.353027
v -89.954285 294.822205 -10.507126
v -89.954285 294.822205 -388.180664
vn 0.0000 -1.0000 0.0000
vn -0.0000 0.0000 -1.0000
vn 0.8710 0.4913 0.0000
vn 0.0000 0.0000 1.0000
vn -1.0000 -0.0000 0.0000
vn 0.0000 1.0000 0.0000
vn -0.8099 0.5866 0.0000
s off
f 3//1 9//1 16//1 15//1
f 3//2 4//2 8//2 7//2
f 11//3 12//3 6//3 5//3
f 5//4 6//4 2//4 1//4
f 9//1 11//1 5//1 1//1
f 23//3 25//3 19//3 20//3
f 24//3 23//3 20//3 21//3
f 3//1 7//1 11//1 9//1
f 7//3 8//3 12//3 11//3
f 1//5 2//5 10//5 9//5
f 16//5 13//5 14//5 15//5
f 9//4 10//4 13//4 16//4
f 10//6 4//6 14//6 13//6
f 4//2 3//2 15//2 14//2
f 20//6 17//6 22//6 21//6
f 19//6 18//6 17//6 20//6
f 27//7 26//7 22//7 17//7
f 28//7 27//7 17//7 18//7
f 26//4 24//4 21//4 22//4
f 25//2 28//2 18//2 19//2
f 8//2 4//2 28//2 25//2
f 2//4 6//4 24//4 26//4
f 4//5 10//5 27//5 28//5
f 10//5 2//5 26//5 27//5
f 6//3 12//3 23//3 24//3
f 12//3 8//3 25//3 23//3
